<?xml version="1.0" standalone="no"?><!DOCTYPE svg PUBLIC "-//W3C//DTD SVG 1.1//EN" "http://www.w3.org/Graphics/SVG/1.1/DTD/svg11.dtd"><svg t="1741836973302" class="icon" viewBox="0 0 1024 1024" version="1.1" xmlns="http://www.w3.org/2000/svg" p-id="6618" width="128" height="128" xmlns:xlink="http://www.w3.org/1999/xlink"><path d="M917.333333 917.333333H106.666667V512A405.333333 405.333333 0 0 1 512 106.666667a405.333333 405.333333 0 0 1 405.333333 405.333333z" fill="#FF5722" p-id="6619"></path><path d="M853.333333 917.333333H170.666667V512A341.333333 341.333333 0 0 1 512 170.666667a341.333333 341.333333 0 0 1 341.333333 341.333333z" fill="#263238" p-id="6620"></path><path d="M682.666667 789.333333h-64l42.666666 128h64l-42.666666-128zM341.333333 789.333333h64l-42.666666 128h-64l42.666666-128z" fill="#546E7A" p-id="6621"></path><path d="M661.333333 298.666667H362.666667a106.666667 106.666667 0 0 0-106.666667 106.666666v341.333334a85.333333 85.333333 0 0 0 85.333333 85.333333h341.333334a85.333333 85.333333 0 0 0 85.333333-85.333333V405.333333a106.666667 106.666667 0 0 0-106.666667-106.666666z" fill="#03A9F4" p-id="6622"></path><path d="M682.666667 725.333333m-42.666667 0a42.666667 42.666667 0 1 0 85.333333 0 42.666667 42.666667 0 1 0-85.333333 0Z" fill="#E3F2FD" p-id="6623"></path><path d="M341.333333 725.333333m-42.666666 0a42.666667 42.666667 0 1 0 85.333333 0 42.666667 42.666667 0 1 0-85.333333 0Z" fill="#E3F2FD" p-id="6624"></path><path d="M341.333333 426.666667h149.333334v192h-149.333334a42.666667 42.666667 0 0 1-42.666666-42.666667v-106.666667a42.666667 42.666667 0 0 1 42.666666-42.666666zM682.666667 618.666667h-149.333334v-192h149.333334a42.666667 42.666667 0 0 1 42.666666 42.666666v106.666667a42.666667 42.666667 0 0 1-42.666666 42.666667z" fill="#35495D" p-id="6625"></path><path d="M405.333333 341.333333m21.333334 0l170.666666 0q21.333333 0 21.333334 21.333334l0 0q0 21.333333-21.333334 21.333333l-170.666666 0q-21.333333 0-21.333334-21.333333l0 0q0-21.333333 21.333334-21.333334Z" fill="#E3F2FD" p-id="6626"></path></svg>